<svg xmlns="http://www.w3.org/2000/svg" xmlns:xlink="http://www.w3.org/1999/xlink" viewBox="0 0 417.74 490"><defs><style>.cls-1{fill:#0a343f;}.cls-2{fill:url(#linear-gradient);}.cls-3{fill:url(#linear-gradient-2);}.cls-4{fill:url(#linear-gradient-3);}.cls-5{fill:url(#linear-gradient-4);}.cls-6{fill:url(#linear-gradient-5);}.cls-7{fill:url(#linear-gradient-6);}</style><linearGradient id="linear-gradient" x1="129.98" y1="60.47" x2="261.34" y2="60.47" gradientUnits="userSpaceOnUse"><stop offset="0" stop-color="#e9c156"/><stop offset="0.11" stop-color="#b28639"/><stop offset="0.24" stop-color="#79491c"/><stop offset="0.3" stop-color="#633110"/><stop offset="0.35" stop-color="#6f3c14"/><stop offset="0.44" stop-color="#8d5a1e"/><stop offset="0.57" stop-color="#bf8a2e"/><stop offset="0.64" stop-color="#e1ab39"/><stop offset="0.65" stop-color="#e3b141"/><stop offset="0.68" stop-color="#edcd66"/><stop offset="0.72" stop-color="#f5e384"/><stop offset="0.75" stop-color="#fbf299"/><stop offset="0.79" stop-color="#fefca6"/><stop offset="0.82" stop-color="#ffa"/><stop offset="0.85" stop-color="#fdfaa3"/><stop offset="0.9" stop-color="#f8ec90"/><stop offset="0.96" stop-color="#f0d571"/><stop offset="1" stop-color="#e9c156"/></linearGradient><linearGradient id="linear-gradient-2" x1="175.92" y1="17.57" x2="215.41" y2="57.07" xlink:href="#linear-gradient"/><linearGradient id="linear-gradient-3" x1="203.15" y1="107.35" x2="334.55" y2="107.35" xlink:href="#linear-gradient"/><linearGradient id="linear-gradient-4" x1="248.47" y1="114.28" x2="321.38" y2="114.28" xlink:href="#linear-gradient"/><linearGradient id="linear-gradient-5" x1="59.04" y1="107.35" x2="190.45" y2="107.35" xlink:href="#linear-gradient"/><linearGradient id="linear-gradient-6" x1="72.21" y1="114.28" x2="145.13" y2="114.28" xlink:href="#linear-gradient"/></defs><title>logo main</title><g id="Layer_2" data-name="Layer 2"><g id="Layer_1-2" data-name="Layer 1"><path class="cls-1" d="M0,420q9.75-5.61,9.75-16.54v-169q0-10.92-9.75-16.54v-2.37H44.61v2.37q-9.75,5.31-9.75,16.54v169q0,11.22,9.75,16.54v2.36H0Z"/><path class="cls-1" d="M116.84,410.79A92.33,92.33,0,0,1,80.5,372.53q-12.25-24.07-12.26-53.32,0-29.54,12.26-53.62a93.41,93.41,0,0,1,36.34-38.41q24.07-14.33,57.76-14.33,18,0,39.44,6.06t30.58,12V253h-2.37q-2.37-4.42-11.08-12.41T207.83,226q-14.62-6.65-33.23-6.65-24.82,0-42.54,13.45T105.32,269q-9,22.74-9,50.22t9,49.93q9,22.46,26.74,35.89t42.54,13.44q18,0,32.35-5.46t23.19-13.15q8.87-7.68,12.41-15.07h2.36V407q-8.57,5.63-31.17,11.82T174.6,425Q140.93,425,116.84,410.79Z"/><path class="cls-1" d="M268.55,420q9.74-5.31,9.74-14.47V232.35q0-9.15-9.74-14.47v-2.37H400.6l5.32,17.73h-2.36Q392.33,222,381.4,222H304V294.1h47.86q11.52,0,16.84-10.05h2.36v26.3H368.7q-5.62-9.75-16.84-9.75H304V415.82h89.22q10.92,0,22.15-11.23h2.37l-5.32,17.72H268.55Z"/><path class="cls-1" d="M73.63,489.3a2.68,2.68,0,0,0,1.45-2.47V461.65a2.68,2.68,0,0,0-1.45-2.47v-.35H84.68a16.46,16.46,0,0,1,8.49,2.07,13.41,13.41,0,0,1,5.31,5.59,16.89,16.89,0,0,1,1.78,7.75,16.3,16.3,0,0,1-1.83,7.68,13.68,13.68,0,0,1-5.37,5.59,16.42,16.42,0,0,1-8.38,2.14H73.63Zm5.28-29.5v28.88H84.5a10.26,10.26,0,0,0,6.3-1.94,12.06,12.06,0,0,0,3.94-5.24,20.43,20.43,0,0,0,0-14.5,11.83,11.83,0,0,0-3.94-5.22,10.51,10.51,0,0,0-6.28-2Z"/><path class="cls-1" d="M121,489.3a2.41,2.41,0,0,0,1.46-2.16v-25.8a2.41,2.41,0,0,0-1.46-2.16v-.35h19.68l.79,2.64h-.35a4.78,4.78,0,0,0-3.3-1.67H126.24v10.74h7.13a2.65,2.65,0,0,0,2.51-1.5h.35V473h-.35a2.72,2.72,0,0,0-2.51-1.45h-7.13v17.17h13.29a4.78,4.78,0,0,0,3.3-1.67h.36l-.8,2.64H121Z"/><path class="cls-1" d="M173.12,472.92v2.33H162.56v-2.33Z"/><path class="cls-1" d="M208.91,488.68a3.51,3.51,0,0,0,1.81-.53,6.66,6.66,0,0,0,1.45-1.14h.35l-.79,2.64H193.37v-.35a2.63,2.63,0,0,0,1.46-2.47V461.65a2.63,2.63,0,0,0-1.46-2.47v-.35h6.74v.35a2.69,2.69,0,0,0-1.46,2.47v27Z"/><path class="cls-1" d="M254.52,459.18a8.54,8.54,0,0,0-1.1,1.13,2.28,2.28,0,0,0-.35,1.38v18.05a11.08,11.08,0,0,1-2.44,7.33c-1.63,1.95-4.3,2.93-8,2.93a12.33,12.33,0,0,1-5.75-1.25,8.79,8.79,0,0,1-3.61-3.33,8.62,8.62,0,0,1-1.21-4.44V461.69a2.55,2.55,0,0,0-.37-1.45,4.88,4.88,0,0,0-1.13-1.06v-.35h6.78v.35a6.06,6.06,0,0,0-1,1,2.14,2.14,0,0,0-.36,1.34V480a11.48,11.48,0,0,0,1.61,6.19q1.6,2.57,5.44,2.57a9.83,9.83,0,0,0,4.73-1.08,7.46,7.46,0,0,0,3.08-3,8.68,8.68,0,0,0,1.08-4.34V461.65a2.29,2.29,0,0,0-.37-1.39,6.08,6.08,0,0,0-1.08-1.08v-.35h4.09Z"/><path class="cls-1" d="M299.62,488.48a3.37,3.37,0,0,0,1.13.82v.35h-7v-.35a1.19,1.19,0,0,0,.44-1,2.84,2.84,0,0,0-.53-1.5l-6.86-11-6.92,11a2.51,2.51,0,0,0-.44,1.28,1.23,1.23,0,0,0,.62,1.15v.35H276v-.31a6.26,6.26,0,0,0,2.77-2.47l7.48-12L278,461.65A11,11,0,0,0,276.8,460a3.47,3.47,0,0,0-1.15-.84v-.35h7v.35a1.19,1.19,0,0,0-.44,1,2.93,2.93,0,0,0,.53,1.5l5.94,9.51,6-9.56a2.19,2.19,0,0,0,.35-1.14,1.63,1.63,0,0,0-.7-1.28v-.35h4.27v.35a5.7,5.7,0,0,0-2.78,2.42l-6.56,10.48,9.2,14.75A13.71,13.71,0,0,0,299.62,488.48Z"/><path class="cls-1" d="M321.88,489.3a2.4,2.4,0,0,0,1.45-2.16v-25.8a2.4,2.4,0,0,0-1.45-2.16v-.35h19.68l.79,2.64H342a4.82,4.82,0,0,0-3.3-1.67H327.16v10.74h7.13a2.64,2.64,0,0,0,2.51-1.5h.36V473h-.36a2.7,2.7,0,0,0-2.51-1.45h-7.13v17.17h13.3a4.82,4.82,0,0,0,3.3-1.67h.35l-.79,2.64H321.88Z"/><path class="cls-2" d="M130.67,7.84l20.4,37.29,32.56,59.5,7.53,13.77a5.26,5.26,0,0,0,9,0l20.4-37.29,32.56-59.5,7.53-13.77c3.22-5.89-5.78-11.16-9-5.26l-20.4,37.28L198.69,99.37l-7.53,13.76h9L179.76,75.85,147.21,16.34,139.67,2.58c-3.22-5.89-12.23-.63-9,5.26Z"/><path class="cls-3" d="M190.45,5.21V69.43c0,6.71,10.43,6.72,10.43,0V5.21c0-6.71-10.43-6.72-10.43,0Z"/><path class="cls-4" d="M299.34,44.54,267.42,72.6l-50.94,44.79L204.7,127.75c-3,2.67-1.28,7.69,2.3,8.72l40.84,11.75L313,167l15.08,4.34c6.46,1.85,9.22-8.21,2.77-10.06L290,149.5l-65.19-18.75-15.08-4.34,2.3,8.72L244,107.06l50.94-44.79,11.78-10.36c5.05-4.44-2.35-11.79-7.37-7.37Z"/><path class="cls-5" d="M314.87,102.22l-54.7,12.27-8,1.78c-6.55,1.47-3.78,11.53,2.77,10.06l54.71-12.27,8-1.78c6.54-1.47,3.77-11.53-2.78-10.06Z"/><path class="cls-6" d="M94.26,44.54,126.18,72.6l50.94,44.79,11.78,10.36c3,2.67,1.27,7.69-2.3,8.72l-40.85,11.75L80.57,167l-15.08,4.34c-6.47,1.85-9.22-8.21-2.78-10.06l40.85-11.75,65.19-18.75,15.08-4.34-2.3,8.72-31.92-28.07L98.67,62.27,86.89,51.91c-5-4.44,2.35-11.79,7.37-7.37Z"/><path class="cls-7" d="M78.72,102.22l54.71,12.27,8,1.78c6.54,1.47,3.77,11.53-2.77,10.06L83.91,114.06l-8-1.78c-6.55-1.47-3.78-11.53,2.77-10.06Z"/></g></g></svg>